[Header]
FileType HTR
DataType HTRS
FileVersion 1
NumSegments 64
NumFrames 4
DataFrameRate 24
EulerRotationOrder ZYX
CalibrationUnits mm
RotationUnits Degrees
GlobalAxisofGravity Y
BoneLengthAxis Y
ScaleFactor 1.0
[SegmentNames&Hierarchy]
Hips	GLOBAL
Spine	Hips
Spine1	Spine
Spine2	Spine1
Neck	Spine2
Head	Neck
LeftEye	Head
RightEye	Head
LeftShoulder	Spine2
LeftArm	LeftShoulder
LeftForeArm	LeftArm
LeftHand	LeftForeArm
LeftHandThumb1	LeftHand
LeftHandThumb2	LeftHandThumb1
LeftHandThumb3	LeftHandThumb2
LeftHandThumb4	LeftHandThumb3
LeftHandIndex1	LeftHand
LeftHandIndex2	LeftHandIndex1
LeftHandIndex3	LeftHandIndex2
LeftHandIndex4	LeftHandIndex3
LeftHandMiddle1	LeftHand
LeftHandMiddle2	LeftHandMiddle1
LeftHandMiddle3	LeftHandMiddle2
LeftHandMiddle4	LeftHandMiddle3
LeftHandRing1	LeftHand
LeftHandRing2	LeftHandRing1
LeftHandRing3	LeftHandRing2
LeftHandRing4	LeftHandRing3
LeftHandPinky1	LeftHand
LeftHandPinky2	LeftHandPinky1
LeftHandPinky3	LeftHandPinky2
LeftHandPinky4	LeftHandPinky3
RightShoulder	Spine2
RightArm	RightShoulder
RightForeArm	RightArm
RightHand	RightForeArm
RightHandPinky1	RightHand
RightHandPinky2	RightHandPinky1
RightHandPinky3	RightHandPinky2
RightHandPinky4	RightHandPinky3
RightHandRing1	RightHand
RightHandRing2	RightHandRing1
RightHandRing3	RightHandRing2
RightHandRing4	RightHandRing3
RightHandMiddle1	RightHand
RightHandMiddle2	RightHandMiddle1
RightHandMiddle3	RightHandMiddle2
RightHandMiddle4	RightHandMiddle3
RightHandIndex1	RightHand
RightHandIndex2	RightHandIndex1
RightHandIndex3	RightHandIndex2
RightHandIndex4	RightHandIndex3
RightHandThumb1	RightHand
RightHandThumb2	RightHandThumb1
RightHandThumb3	RightHandThumb2
RightHandThumb4	RightHandThumb3
LeftUpLeg	Hips
LeftLeg	LeftUpLeg
LeftFoot	LeftLeg
LeftToeBase	LeftFoot
RightUpLeg	Hips
RightLeg	RightUpLeg
RightFoot	RightLeg
RightToeBase	RightFoot
[BasePosition]
Hips	0	0	0	0	0	0	1
Spine	0	0	0	0	0	0	1
Spine1	0	0	0	0	0	0	1
Spine2	0	0	0	0	0	0	1
Neck	0	0	0	0	0	0	1
Head	0	0	0	0	0	0	1
LeftEye	0	0	0	0	0	0	1
RightEye	0	0	0	0	0	0	1
LeftShoulder	0	0	0	0	0	0	1
LeftArm	0	0	0	0	0	0	1
LeftForeArm	0	0	0	0	0	0	1
LeftHand	0	0	0	0	0	0	1
LeftHandThumb1	0	0	0	0	0	0	1
LeftHandThumb2	0	0	0	0	0	0	1
LeftHandThumb3	0	0	0	0	0	0	1
LeftHandThumb4	0	0	0	0	0	0	1
LeftHandIndex1	0	0	0	0	0	0	1
LeftHandIndex2	0	0	0	0	0	0	1
LeftHandIndex3	0	0	0	0	0	0	1
LeftHandIndex4	0	0	0	0	0	0	1
LeftHandMiddle1	0	0	0	0	0	0	1
LeftHandMiddle2	0	0	0	0	0	0	1
LeftHandMiddle3	0	0	0	0	0	0	1
LeftHandMiddle4	0	0	0	0	0	0	1
LeftHandRing1	0	0	0	0	0	0	1
LeftHandRing2	0	0	0	0	0	0	1
LeftHandRing3	0	0	0	0	0	0	1
LeftHandRing4	0	0	0	0	0	0	1
LeftHandPinky1	0	0	0	0	0	0	1
LeftHandPinky2	0	0	0	0	0	0	1
LeftHandPinky3	0	0	0	0	0	0	1
LeftHandPinky4	0	0	0	0	0	0	1
RightShoulder	0	0	0	0	0	0	1
RightArm	0	0	0	0	0	0	1
RightForeArm	0	0	0	0	0	0	1
RightHand	0	0	0	0	0	0	1
RightHandPinky1	0	0	0	0	0	0	1
RightHandPinky2	0	0	0	0	0	0	1
RightHandPinky3	0	0	0	0	0	0	1
RightHandPinky4	0	0	0	0	0	0	1
RightHandRing1	0	0	0	0	0	0	1
RightHandRing2	0	0	0	0	0	0	1
RightHandRing3	0	0	0	0	0	0	1
RightHandRing4	0	0	0	0	0	0	1
RightHandMiddle1	0	0	0	0	0	0	1
RightHandMiddle2	0	0	0	0	0	0	1
RightHandMiddle3	0	0	0	0	0	0	1
RightHandMiddle4	0	0	0	0	0	0	1
RightHandIndex1	0	0	0	0	0	0	1
RightHandIndex2	0	0	0	0	0	0	1
RightHandIndex3	0	0	0	0	0	0	1
RightHandIndex4	0	0	0	0	0	0	1
RightHandThumb1	0	0	0	0	0	0	1
RightHandThumb2	0	0	0	0	0	0	1
RightHandThumb3	0	0	0	0	0	0	1
RightHandThumb4	0	0	0	0	0	0	1
LeftUpLeg	0	0	0	0	0	0	1
LeftLeg	0	0	0	0	0	0	1
LeftFoot	0	0	0	0	0	0	1
LeftToeBase	0	0	0	0	0	0	1
RightUpLeg	0	0	0	0	0	0	1
RightLeg	0	0	0	0	0	0	1
RightFoot	0	0	0	0	0	0	1
RightToeBase	0	0	0	0	0	0	1
[Hips]
76	-7.086805344	1033.604004	23.09965134	-4.273728848	-4.815049648	-2.87770915	1.0
77	-7.101978302	1033.655884	23.08291435	-4.291582108	-4.831595421	-2.862092018	1.0
78	-7.020774841	1033.716309	23.00664711	-4.282989502	-4.847789764	-2.842674732	1.0
79	-6.890782833	1033.769165	22.87256622	-4.261998177	-4.862332344	-2.822509766	1.0
[Spine]
76	0	101.8159943	1.315000057	3.607243538	1.811816931	3.039605141	1.0
77	0	101.8159943	1.315000057	3.580166101	1.797827959	3.04049015	1.0
78	0	101.8159943	1.315000057	3.555643082	1.784505129	3.041643143	1.0
79	0	101.8159943	1.315000057	3.533776045	1.76760602	3.044041157	1.0
[Spine1]
76	0	100.8349991	-10.00800037	1.196888924	0.4931893349	1.646933079	1.0
77	0	100.8349991	-10.00800037	1.190305829	0.4874015749	1.648449421	1.0
78	0	100.8349991	-10.00800037	1.184445381	0.4818044305	1.650324583	1.0
79	0	100.8349991	-10.00800037	1.179646134	0.4746912718	1.652650356	1.0
[Spine2]
76	0	91	-13.73399925	1.171724319	0.5161622763	1.648590088	1.0
77	0	91	-13.73399925	1.165124893	0.5103883743	1.6502074	1.0
78	0	91	-13.73399925	1.159239531	0.5048242807	1.652175426	1.0
79	0	91	-13.73399925	1.154416919	0.4977466762	1.654598832	1.0
[Neck]
76	0	166.7169952	-25.16200066	5.964392662	-0.2988238931	0.4136683047	1.0
77	0	166.7169952	-25.16200066	5.941662788	-0.2996042073	0.4540356994	1.0
78	0	166.7169952	-25.16200066	5.89248085	-0.2959311604	0.4886559248	1.0
79	0	166.7169952	-25.16200066	5.835985184	-0.2917238474	0.5157963037	1.0
[Head]
76	0	96.17900085	16.84999847	-8.199695587	0.7400529981	-0.2169236243	1.0
77	0	96.17900085	16.84999847	-8.079916954	0.7889911532	-0.2124967575	1.0
78	0	96.17900085	16.84999847	-8.034031868	0.8529277444	-0.216067642	1.0
79	0	96.17900085	16.84999847	-8.034525871	0.9051972032	-0.2191371769	1.0
[LeftEye]
76	30.6760006	64.09500122	92.83599854	0	0	0	1.0
77	30.6760006	64.09500122	92.83599854	0	0	0	1.0
78	30.6760006	64.09500122	92.83599854	0	0	0	1.0
79	30.6760006	64.09500122	92.83599854	0	0	0	1.0
[RightEye]
76	-30.6760006	64.09500122	92.83499908	0	0	0	1.0
77	-30.6760006	64.09500122	92.83499908	0	0	0	1.0
78	-30.6760006	64.09500122	92.83499908	0	0	0	1.0
79	-30.6760006	64.09500122	92.83499908	0	0	0	1.0
[LeftShoulder]
76	45.70400238	109.4599991	-26.28000069	4.884682655	-16.5930748	-13.16966438	1.0
77	45.70400238	109.4599991	-26.28000069	4.862294197	-16.55016327	-13.0635891	1.0
78	45.70400238	109.4599991	-26.28000069	4.845273972	-16.51862335	-12.9821682	1.0
79	45.70400238	109.4599991	-26.28000069	4.831303596	-16.49285316	-12.91503811	1.0
[LeftArm]
76	105.923996	-5.24600029	-22.32099915	19.8713665	-3.578608036	-71.47033691	1.0
77	105.923996	-5.24600029	-22.32099915	19.90867424	-3.536323547	-71.59134674	1.0
78	105.923996	-5.24600029	-22.32099915	19.93563271	-3.504229069	-71.6616745	1.0
79	105.923996	-5.24600029	-22.32099915	19.96416092	-3.474534988	-71.71187592	1.0
[LeftForeArm]
76	278.414978	-0.0009999999311	0	-9.031504305e-06	-1.448062658	-0.0002066171728	1.0
77	278.414978	-0.0009999999311	0	-1.012977373e-05	-1.456232071	-0.0001912099833	1.0
78	278.414978	-0.0009999999311	0	-5.034471542e-06	-1.463165283	-0.0001950860897	1.0
79	278.414978	-0.0009999999311	0	-1.05819413e-06	-1.468681812	-0.0002015354257	1.0
[LeftHand]
76	283.2879944	0	0	-32.8539238	-4.459733009	-4.274835587	1.0
77	283.2879944	0	0	-32.80661392	-4.454290867	-4.331450462	1.0
78	283.2879944	0	0	-32.77353287	-4.457369804	-4.410349846	1.0
79	283.2879944	0	0	-32.75392532	-4.468207836	-4.486608505	1.0
[LeftHandThumb1]
76	24.6609993	-15.75	26.8239994	-0.4889889657	2.201390743	4.818541527	1.0
77	24.6609993	-15.75	26.8239994	-0.4889889657	2.201390743	4.818541527	1.0
78	24.6609993	-15.75	26.8239994	-0.4889889657	2.201390743	4.818541527	1.0
79	24.6609993	-15.75	26.8239994	-0.4889889657	2.201390743	4.818541527	1.0
[LeftHandThumb2]
76	32.29800034	-18.64699936	18.64699936	19.88581276	19.96446037	23.26738167	1.0
77	32.29800034	-18.64699936	18.64699936	19.88581276	19.96446037	23.26738167	1.0
78	32.29800034	-18.64699936	18.64699936	19.88581276	19.96446037	23.26738167	1.0
79	32.29800034	-18.64699936	18.64699936	19.88581276	19.96446037	23.26738167	1.0
[LeftHandThumb3]
76	26.52600098	-15.31499958	15.31499958	-13.14535904	5.551738262	7.967928886	1.0
77	26.52600098	-15.31499958	15.31499958	-13.14535904	5.551738262	7.967928886	1.0
78	26.52600098	-15.31499958	15.31499958	-13.14535904	5.551738262	7.967928886	1.0
79	26.52600098	-15.31499958	15.31499958	-13.14535904	5.551738262	7.967928886	1.0
[LeftHandThumb4]
76	19.54599953	-11.28499985	11.28499985	0	0	0	1.0
77	19.54599953	-11.28499985	11.28499985	0	0	0	1.0
78	19.54599953	-11.28499985	11.28499985	0	0	0	1.0
79	19.54599953	-11.28499985	11.28499985	0	0	0	1.0
[LeftHandIndex1]
76	91.09299469	-5.170999527	22.60099792	0.1480516791	-0.9618676901	-7.594518185	1.0
77	91.09299469	-5.170999527	22.60099792	0.1480516791	-0.9618676901	-7.594518185	1.0
78	91.09299469	-5.170999527	22.60099792	0.1480516791	-0.9618676901	-7.594518185	1.0
79	91.09299469	-5.170999527	22.60099792	0.1480516791	-0.9618676901	-7.594518185	1.0
[LeftHandIndex2]
76	36.76399994	0	0	-0.2667043209	1.745171905	-17.37646866	1.0
77	36.76399994	0	0	-0.2667043209	1.745171905	-17.37646866	1.0
78	36.76399994	0	0	-0.2667043209	1.745171905	-17.37646866	1.0
79	36.76399994	0	0	-0.2667043209	1.745171905	-17.37646866	1.0
[LeftHandIndex3]
76	28.83100128	0	0	-0.05742863193	0.817338407	-8.038370132	1.0
77	28.83100128	0	0	-0.05742863193	0.817338407	-8.038370132	1.0
78	28.83100128	0	0	-0.05742863193	0.817338407	-8.038370132	1.0
79	28.83100128	0	0	-0.05742863193	0.817338407	-8.038370132	1.0
[LeftHandIndex4]
76	23.92700005	0	0	0	0	0	1.0
77	23.92700005	0	0	0	0	0	1.0
78	23.92700005	0	0	0	0	0	1.0
79	23.92700005	0	0	0	0	0	1.0
[LeftHandMiddle1]
76	95.33399963	0	0	-0.7942916155	2.538622379	-15.71737862	1.0
77	95.33399963	0	0	-0.7942916155	2.538622379	-15.71737862	1.0
78	95.33399963	0	0	-0.7942916155	2.538622379	-15.71737862	1.0
79	95.33399963	0	0	-0.7942916155	2.538622379	-15.71737862	1.0
[LeftHandMiddle2]
76	36.98199844	0	0	-0.267610997	1.748071074	-17.40625954	1.0
77	36.98199844	0	0	-0.267610997	1.748071074	-17.40625954	1.0
78	36.98199844	0	0	-0.267610997	1.748071074	-17.40625954	1.0
79	36.98199844	0	0	-0.267610997	1.748071074	-17.40625954	1.0
[LeftHandMiddle3]
76	29.50900078	0	0	-0.2992140949	1.84580946	-18.41413307	1.0
77	29.50900078	0	0	-0.2992140949	1.84580946	-18.41413307	1.0
78	29.50900078	0	0	-0.2992140949	1.84580946	-18.41413307	1.0
79	29.50900078	0	0	-0.2992140949	1.84580946	-18.41413307	1.0
[LeftHandMiddle4]
76	28.3390007	0	0	0	0	0	1.0
77	28.3390007	0	0	0	0	0	1.0
78	28.3390007	0	0	0	0	0	1.0
79	28.3390007	0	0	0	0	0	1.0
[LeftHandRing1]
76	91.04499817	-0.4390000105	-18.65100098	-1.184956431	3.436642885	-21.16632462	1.0
77	91.04499817	-0.4390000105	-18.65100098	-1.184956431	3.436642885	-21.16632462	1.0
78	91.04499817	-0.4390000105	-18.65100098	-1.184956431	3.436642885	-21.16632462	1.0
79	91.04499817	-0.4390000105	-18.65100098	-1.184956431	3.436642885	-21.16632462	1.0
[LeftHandRing2]
76	31.54000092	0	0	-0.3849357069	2.085560799	-20.91281319	1.0
77	31.54000092	0	0	-0.3849357069	2.085560799	-20.91281319	1.0
78	31.54000092	0	0	-0.3849357069	2.085560799	-20.91281319	1.0
79	31.54000092	0	0	-0.3849357069	2.085560799	-20.91281319	1.0
[LeftHandRing3]
76	29.37700081	0	0	-0.2818065584	1.792707562	-17.86576271	1.0
77	29.37700081	0	0	-0.2818065584	1.792707562	-17.86576271	1.0
78	29.37700081	0	0	-0.2818065584	1.792707562	-17.86576271	1.0
79	29.37700081	0	0	-0.2818065584	1.792707562	-17.86576271	1.0
[LeftHandRing4]
76	26.47500038	0	0	0	0	0	1.0
77	26.47500038	0	0	0	0	0	1.0
78	26.47500038	0	0	0	0	0	1.0
79	26.47500038	0	0	0	0	0	1.0
[LeftHandPinky1]
76	80.77799988	-4.887000084	-38.06099701	-1.708467126	5.355370045	-27.1653862	1.0
77	80.77799988	-4.887000084	-38.06099701	-1.708467126	5.355370045	-27.1653862	1.0
78	80.77799988	-4.887000084	-38.06099701	-1.708467126	5.355370045	-27.1653862	1.0
79	80.77799988	-4.887000084	-38.06099701	-1.708467126	5.355370045	-27.1653862	1.0
[LeftHandPinky2]
76	36	0	0	-0.2676221728	1.748113751	-17.40663528	1.0
77	36	0	0	-0.2676221728	1.748113751	-17.40663528	1.0
78	36	0	0	-0.2676221728	1.748113751	-17.40663528	1.0
79	36	0	0	-0.2676221728	1.748113751	-17.40663528	1.0
[LeftHandPinky3]
76	21.14200211	0	0	-0.2408525199	1.660349369	-16.50663185	1.0
77	21.14200211	0	0	-0.2408525199	1.660349369	-16.50663185	1.0
78	21.14200211	0	0	-0.2408525199	1.660349369	-16.50663185	1.0
79	21.14200211	0	0	-0.2408525199	1.660349369	-16.50663185	1.0
[LeftHandPinky4]
76	19.75699997	0	0	0	0	0	1.0
77	19.75699997	0	0	0	0	0	1.0
78	19.75699997	0	0	0	0	0	1.0
79	19.75699997	0	0	0	0	0	1.0
[RightShoulder]
76	-45.70000076	109.4620056	-26.28000069	5.279831409	14.94911575	15.86573792	1.0
77	-45.70000076	109.4620056	-26.28000069	5.278574944	14.9518652	15.85690689	1.0
78	-45.70000076	109.4620056	-26.28000069	5.274362087	14.94845581	15.83392906	1.0
79	-45.70000076	109.4620056	-26.28000069	5.269290447	14.94168377	15.80767536	1.0
[RightArm]
76	-105.9280014	-5.248000145	-22.32099915	30.02453613	1.696233988	62.49108887	1.0
77	-105.9280014	-5.248000145	-22.32099915	30.00786972	1.666945934	62.48894501	1.0
78	-105.9280014	-5.248000145	-22.32099915	30.00244331	1.669187784	62.48452377	1.0
79	-105.9280014	-5.248000145	-22.32099915	30.01229668	1.693490267	62.47114944	1.0
[RightForeArm]
76	-278.414978	0	0	-6.561077498e-06	6.621175766	3.259922778e-06	1.0
77	-278.414978	0	0	-3.982822363e-06	6.599935532	1.251385675e-05	1.0
78	-278.414978	0	0	2.966597776e-07	6.600507736	1.387069551e-05	1.0
79	-278.414978	0	0	2.993693442e-06	6.605142117	1.003778743e-05	1.0
[RightHand]
76	-283.2879944	0	0.0009999999311	-20.23490715	1.597175121	6.216882706	1.0
77	-283.2879944	0	0.0009999999311	-20.22402954	1.592986584	6.208776951	1.0
78	-283.2879944	0	0.0009999999311	-20.22611237	1.598384142	6.178442955	1.0
79	-283.2879944	0	0.0009999999311	-20.22697449	1.606550694	6.142331123	1.0
[RightHandPinky1]
76	-80.76699829	-4.885000229	-38.06000137	-1.507175922	-4.696118355	26.50587463	1.0
77	-80.76699829	-4.885000229	-38.06000137	-1.507175922	-4.696118355	26.50587463	1.0
78	-80.76699829	-4.885000229	-38.06000137	-1.507175922	-4.696118355	26.50587463	1.0
79	-80.76699829	-4.885000229	-38.06000137	-1.507175922	-4.696118355	26.50587463	1.0
[RightHandPinky2]
76	-36	0	0.0009999999311	-0.2127676606	-1.388874292	17.43785858	1.0
77	-36	0	0.0009999999311	-0.2127676606	-1.388874292	17.43785858	1.0
78	-36	0	0.0009999999311	-0.2127676606	-1.388874292	17.43785858	1.0
79	-36	0	0.0009999999311	-0.2127676606	-1.388874292	17.43785858	1.0
[RightHandPinky3]
76	-21.14200211	0	0	-0.1919144988	-1.32059598	16.53641129	1.0
77	-21.14200211	0	0	-0.1919144988	-1.32059598	16.53641129	1.0
78	-21.14200211	0	0	-0.1919144988	-1.32059598	16.53641129	1.0
79	-21.14200211	0	0	-0.1919144988	-1.32059598	16.53641129	1.0
[RightHandPinky4]
76	-19.75699997	0	0	0	0	0	1.0
77	-19.75699997	0	0	0	0	0	1.0
78	-19.75699997	0	0	0	0	0	1.0
79	-19.75699997	0	0	0	0	0	1.0
[RightHandRing1]
76	-91.03599548	-0.4390000105	-18.65100098	-1.045235753	-2.883111477	20.47788429	1.0
77	-91.03599548	-0.4390000105	-18.65100098	-1.045235753	-2.883111477	20.47788429	1.0
78	-91.03599548	-0.4390000105	-18.65100098	-1.045235753	-2.883111477	20.47788429	1.0
79	-91.03599548	-0.4390000105	-18.65100098	-1.045235753	-2.883111477	20.47788429	1.0
[RightHandRing2]
76	-31.54000092	0	0	-0.3066971898	-1.658752441	20.94926834	1.0
77	-31.54000092	0	0	-0.3066971898	-1.658752441	20.94926834	1.0
78	-31.54000092	0	0	-0.3066971898	-1.658752441	20.94926834	1.0
79	-31.54000092	0	0	-0.3066971898	-1.658752441	20.94926834	1.0
[RightHandRing3]
76	-29.37700081	0	0	-0.2245407403	-1.425854325	17.89771652	1.0
77	-29.37700081	0	0	-0.2245407403	-1.425854325	17.89771652	1.0
78	-29.37700081	0	0	-0.2245407403	-1.425854325	17.89771652	1.0
79	-29.37700081	0	0	-0.2245407403	-1.425854325	17.89771652	1.0
[RightHandRing4]
76	-26.47500038	0	0	0	0	0	1.0
77	-26.47500038	0	0	0	0	0	1.0
78	-26.47500038	0	0	0	0	0	1.0
79	-26.47500038	0	0	0	0	0	1.0
[RightHandMiddle1]
76	-95.32500458	0	0	-0.7017197609	-2.087752104	15.0152874	1.0
77	-95.32500458	0	0	-0.7017197609	-2.087752104	15.0152874	1.0
78	-95.32500458	0	0	-0.7017197609	-2.087752104	15.0152874	1.0
79	-95.32500458	0	0	-0.7017197609	-2.087752104	15.0152874	1.0
[RightHandMiddle2]
76	-36.98199844	0	0	-0.213228479	-1.390354872	17.43750381	1.0
77	-36.98199844	0	0	-0.213228479	-1.390354872	17.43750381	1.0
78	-36.98199844	0	0	-0.213228479	-1.390354872	17.43750381	1.0
79	-36.98199844	0	0	-0.213228479	-1.390354872	17.43750381	1.0
[RightHandMiddle3]
76	-29.50900078	0	0	-0.2384106964	-1.470119596	18.44692802	1.0
77	-29.50900078	0	0	-0.2384106964	-1.470119596	18.44692802	1.0
78	-29.50900078	0	0	-0.2384106964	-1.470119596	18.44692802	1.0
79	-29.50900078	0	0	-0.2384106964	-1.470119596	18.44692802	1.0
[RightHandMiddle4]
76	-28.3390007	0	0.0009999999311	0	0	0	1.0
77	-28.3390007	0	0.0009999999311	0	0	0	1.0
78	-28.3390007	0	0.0009999999311	0	0	0	1.0
79	-28.3390007	0	0.0009999999311	0	0	0	1.0
[RightHandIndex1]
76	-91.08300018	-5.167999744	22.60099792	0.1884763837	1.25192976	6.825599194	1.0
77	-91.08300018	-5.167999744	22.60099792	0.1884763837	1.25192976	6.825599194	1.0
78	-91.08300018	-5.167999744	22.60099792	0.1884763837	1.25192976	6.825599194	1.0
79	-91.08300018	-5.167999744	22.60099792	0.1884763837	1.25192976	6.825599194	1.0
[RightHandIndex2]
76	-36.76399994	0	0	-0.2125098109	-1.388050556	17.40767097	1.0
77	-36.76399994	0	0	-0.2125098109	-1.388050556	17.40767097	1.0
78	-36.76399994	0	0	-0.2125098109	-1.388050556	17.40767097	1.0
79	-36.76399994	0	0	-0.2125098109	-1.388050556	17.40767097	1.0
[RightHandIndex3]
76	-28.83100128	0	0	-0.04576345533	-0.650116384	8.053516388	1.0
77	-28.83100128	0	0	-0.04576345533	-0.650116384	8.053516388	1.0
78	-28.83100128	0	0	-0.04576345533	-0.650116384	8.053516388	1.0
79	-28.83100128	0	0	-0.04576345533	-0.650116384	8.053516388	1.0
[RightHandIndex4]
76	-23.92700005	0	0	0	0	0	1.0
77	-23.92700005	0	0	0	0	0	1.0
78	-23.92700005	0	0	0	0	0	1.0
79	-23.92700005	0	0	0	0	0	1.0
[RightHandThumb1]
76	-24.64799881	-15.72700024	26.82600021	-1.658462524	-0.2891407609	-4.221328735	1.0
77	-24.64799881	-15.72700024	26.82600021	-1.658462524	-0.2891407609	-4.221328735	1.0
78	-24.64799881	-15.72700024	26.82600021	-1.658462524	-0.2891407609	-4.221328735	1.0
79	-24.64799881	-15.72700024	26.82600021	-1.658462524	-0.2891407609	-4.221328735	1.0
[RightHandThumb2]
76	-32.29800034	-18.64699936	18.64699936	22.25259209	-23.88967514	-24.282444	1.0
77	-32.29800034	-18.64699936	18.64699936	22.25259209	-23.88967514	-24.282444	1.0
78	-32.29800034	-18.64699936	18.64699936	22.25259209	-23.88967514	-24.282444	1.0
79	-32.29800034	-18.64699936	18.64699936	22.25259209	-23.88967514	-24.282444	1.0
[RightHandThumb3]
76	-26.52600098	-15.31399918	15.31399918	-14.47830296	-6.743862152	-11.36570263	1.0
77	-26.52600098	-15.31399918	15.31399918	-14.47830296	-6.743862152	-11.36570263	1.0
78	-26.52600098	-15.31399918	15.31399918	-14.47830296	-6.743862152	-11.36570263	1.0
79	-26.52600098	-15.31399918	15.31399918	-14.47830296	-6.743862152	-11.36570263	1.0
[RightHandThumb4]
76	-19.54599953	-11.28499985	11.28499985	0	0	0	1.0
77	-19.54599953	-11.28499985	11.28499985	0	0	0	1.0
78	-19.54599953	-11.28499985	11.28499985	0	0	0	1.0
79	-19.54599953	-11.28499985	11.28499985	0	0	0	1.0
[LeftUpLeg]
76	82.07800293	-67.51699829	-15.99599934	-6.919401646	16.44714355	7.892511368	1.0
77	82.07800293	-67.51699829	-15.99599934	-6.871655941	16.44100571	7.884040833	1.0
78	82.07800293	-67.51699829	-15.99599934	-6.843253136	16.41436768	7.854194164	1.0
79	82.07800293	-67.51699829	-15.99599934	-6.832980633	16.38264084	7.816568851	1.0
[LeftLeg]
76	0	-443.7049866	2.845999956	12.048069	0.1080385745	4.417459488	1.0
77	0	-443.7049866	2.845999956	11.99685478	0.1315506101	4.420110226	1.0
78	0	-443.7049866	2.845999956	11.91903496	0.1845582724	4.433696747	1.0
79	0	-443.7049866	2.845999956	11.84217453	0.2437196523	4.447505474	1.0
[LeftFoot]
76	0	-444.2789917	-29.8219986	1.073348522	0.6953469515	-7.374845505	1.0
77	0	-444.2789917	-29.8219986	1.104921818	0.6956893802	-7.365569592	1.0
78	0	-444.2789917	-29.8219986	1.142925382	0.6969791651	-7.364346504	1.0
79	0	-444.2789917	-29.8219986	1.182038784	0.6983931065	-7.365268707	1.0
[LeftToeBase]
76	0	-87.28699493	107.1060028	-4.869575977	-8.583331237e-07	-4.12318559e-06	1.0
77	0	-87.28699493	107.1060028	-4.870295048	-8.223878467e-06	-1.132360239e-06	1.0
78	0	-87.28699493	107.1060028	-4.871117592	2.399046934e-07	1.57050863e-07	1.0
79	0	-87.28699493	107.1060028	-4.873693466	1.076367244e-05	9.033424817e-07	1.0
[RightUpLeg]
76	-82.07800293	-67.51699829	-15.99599934	1.047293425	-10.74711704	3.134462833	1.0
77	-82.07800293	-67.51699829	-15.99599934	1.077190042	-10.75732231	3.113345623	1.0
78	-82.07800293	-67.51699829	-15.99599934	1.074981093	-10.76848221	3.086406708	1.0
79	-82.07800293	-67.51699829	-15.99599934	1.049420238	-10.77652359	3.059383392	1.0
[RightLeg]
76	0	-443.7049866	2.861999989	8.979125977	-9.182348251	-4.792876244	1.0
77	0	-443.7049866	2.861999989	8.951406479	-9.183904648	-4.787022591	1.0
78	0	-443.7049866	2.861999989	8.921247482	-9.185674667	-4.777874947	1.0
79	0	-443.7049866	2.861999989	8.902749062	-9.186362267	-4.770547867	1.0
[RightFoot]
76	0	-444.2770081	-29.83799934	-5.08588028	-1.784775853	3.28276062	1.0
77	0	-444.2770081	-29.83799934	-5.070595741	-1.765342116	3.277934074	1.0
78	0	-444.2770081	-29.83799934	-5.046185493	-1.7400738	3.274706841	1.0
79	0	-444.2770081	-29.83799934	-5.022060871	-1.717354655	3.273647785	1.0
[RightToeBase]
76	0	-87.28699493	107.1060028	-7.201696396	-5.084823442e-07	1.324803975e-06	1.0
77	0	-87.28699493	107.1060028	-7.186251163	7.618982181e-06	1.257503754e-06	1.0
78	0	-87.28699493	107.1060028	-7.172157288	1.19674487e-05	-7.43935459e-07	1.0
79	0	-87.28699493	107.1060028	-7.160851479	1.534368494e-05	-2.755734613e-06	1.0
[EndOfFile]
